<svg id="Capa_1" enable-background="new 0 0 512.002 512.002" height="512" viewBox="0 0 512.002 512.002" width="512" xmlns="http://www.w3.org/2000/svg"><g><g><path d="m452.189 259.534c-.787-1.179-1.594-2.356-2.408-3.533l-4.804-1-13-19.125-1.946-5.179c-14.119-16.235-30.663-31.991-49.132-46.822h-7.256l-22.833-18.785-6.001-7.39c-7.676-5.03-15.568-9.899-23.665-14.573-8.103-4.678-16.272-9.082-24.472-13.217l-11.32-2.533-27.75-10.625-1.625-5c-22.078-8.578-43.995-15.028-65.114-19.138l-5.552 2.221-22.5-3.336-3.726-3.336c-1.429-.117-2.855-.227-4.273-.32-6.299-.411-12.396-.559-18.301-.474-10.366 1.886-22.366 4.132-22.366 4.132l-33.835 13.833-24.333 32.833-8 40.333 7.25 34.25 26.287 46.783 36.463 41.467 62.25 52 48.25 29 59 26.5 54.199 12.095 8.176 1.28 1.273.829 6.695 1.494c4.966.31 9.812.469 14.533.469 47.354 0 82.146-15.517 98.831-44.416 18.424-31.912 11.679-74.784-18.995-120.717zm-7.357 105.503c-11.586 20.066-40.542 30.518-79.915 29.047l-6.816 2.417-21.125-2.375-3.182-3.34c-12.07-2.035-24.493-4.949-37.122-8.694h-8.32l-29.25-10.341-3.125-4.307c-16.678-7.045-33.437-15.384-49.954-24.92-16.512-9.534-32.109-19.874-46.547-30.792l-3.374 1.895-25.048-18.125-4.631-11.706c-9.554-9.063-18.287-18.362-26.082-27.795h-4.613l-12.875-19.75-.93-5.554c-20.959-33.359-26.386-63.667-14.802-83.732 10.867-18.821 37.012-29.194 72.703-29.194 2.359 0 4.771.057 7.211.148l2.567-1.4 25.5 2.107 3.057 2.59c12.07 2.035 24.493 4.949 37.122 8.693h4.946l34.875 10.842.875 3.807c16.678 7.045 33.437 15.385 49.954 24.92 16.513 9.534 32.11 19.874 46.547 30.792l4.5-1.602 23.923 21.27 4.632 8.268c9.554 9.063 18.287 18.362 26.082 27.794l2.489.474 15.929 20.777v4.053c20.957 33.36 26.384 63.667 14.799 83.733z" fill="#ffe02f"/><g><path d="m378.892 424.16c-51.315-3.35-110.387-22.983-166.333-55.284-55.948-32.301-102.486-73.642-131.044-116.407-30.674-45.934-37.42-88.806-18.995-120.718 15.406-26.685 46.253-41.951 88.172-44.135-53.019-2.569-91.963 13.024-109.923 44.134-18.425 31.912-11.679 74.784 18.995 120.718.787 1.179 1.594 2.356 2.408 3.533h2.43l17.32 18.625v6.678c14.119 16.235 30.663 31.991 49.132 46.822l3.173-1.125 27 18.75 5.917 8.551c7.676 5.03 15.568 9.899 23.664 14.573 8.103 4.678 16.272 9.082 24.472 13.217l6.071 1.034 33.5 14.125 1.125 3c22.078 8.578 43.995 15.028 65.114 19.138l4.011-1.388 24.75 3.875 3.017 1.964c1.429.117 2.855.227 4.273.32 5.204.339 10.275.508 15.211.508 3.598 0 7.113-.101 10.563-.279-1.332-.066-2.673-.141-4.023-.229z" fill="#fbc700"/></g><path d="m277.726 204.686h-10.25l-25.5 26.565-2.986 27.25 4.236 20.75 12.75 16.75 10.257 9.25 11.493 2.065c19.967-8.473 33.971-28.258 33.971-51.315s-14.004-42.842-33.971-51.315z" fill="#ff5595"/><path d="m243.755 256.001c0-23.057 14.005-42.842 33.971-51.315-6.683-2.836-14.033-4.406-21.75-4.406-30.774 0-55.721 24.947-55.721 55.721s24.948 55.721 55.721 55.721c7.717 0 15.067-1.57 21.75-4.406-19.967-8.473-33.971-28.258-33.971-51.315z" fill="#ff3581"/><path d="m364.918 117.919-4.865-3.418-9.743-24.5 2.569-1.84c-.612-1.293-1.228-2.58-1.855-3.852-22.397-45.384-52.614-72.069-85.864-76.221h-12.184l-36.375 19.038-35.791 42.208-22.667 55.667-15.333 95.333-3.667 77.333s15 74 16 75 24.333 69 24.333 69l40.667 49 36.83 13.811c36.46-.489 69.828-27.703 94.05-76.787 14.024-28.419 24.159-62.488 29.877-99.566l-1.924-3.958 1.939-33.667 4.606-6.698c.519-9.169.79-18.446.79-27.802.001-49.923-7.49-97.674-21.393-138.081zm-9.441 196.415-7.667 33.833-2.983 6.122c-5.272 21.98-12.35 42.223-21.091 59.937-18.769 38.033-43.467 59.847-67.76 59.847-23.17 0-46.703-19.854-65.114-54.685l-4.511-3.075-9.375-22.231 1.181-3.296c-14.329-38.467-22.089-85.321-22.089-134.785 0-19.072 1.157-37.755 3.395-55.722l-2.487-3.278 8-34.333 2.149-4.956c5.271-21.981 12.349-42.223 21.091-59.937 18.768-38.034 43.467-59.847 67.76-59.847 23.169 0 46.703 19.854 65.114 54.685l5.053 3.075 8.833 21.146-1.182 4.382c14.329 38.467 22.089 85.321 22.089 134.785 0 19.072-1.157 37.755-3.395 55.721z" fill="#8bcaff"/><g><path d="m179.297 427.692c-22.756-46.115-35.29-107.089-35.289-171.691 0-64.602 12.532-125.576 35.289-171.691 22.397-45.391 52.614-72.071 85.863-76.222-3.038-.379-6.099-.588-9.184-.588-36.849 0-70.604 27.278-95.047 76.81-14.024 28.42-24.159 62.488-29.877 99.566l2.379 2.292-2.378 35.167-4.623 6.864c-.519 9.17-.79 18.446-.79 27.803 0 49.924 7.491 97.674 21.395 138.082l3.567 1.793 8.874 25.25-.402 2.714c.612 1.293 1.228 2.581 1.855 3.852 24.443 49.532 58.198 76.81 95.047 76.81 3.086 0 6.148-.208 9.187-.588-33.25-4.153-63.469-30.837-85.866-76.223z" fill="#60b9fe"/></g><path d="m471.184 131.75c-17.334-30.025-54.211-45.601-104.423-44.341l-45.451 7.924-67.083 22.167-73 40.25-67.75 56.25-42 51-20.667 46.722v49.612l17.5 30.333 21.667 18.833 32.667 12.167s3.449.776 7.958 1.804c2.947.128 5.945.195 8.998.195 4.934 0 10.01-.168 15.211-.508 51.315-3.349 110.387-22.983 166.333-55.284 55.947-32.301 102.486-73.642 131.044-116.407 30.675-45.932 37.42-88.804 18.996-120.717zm-44.3 103.82c-26.016 38.958-68.972 76.941-120.954 106.954-51.982 30.012-106.355 48.221-153.101 51.272-4.463.291-8.798.435-13.005.435-35.687-.001-61.837-10.374-72.703-29.194-12.147-21.039-5.605-53.334 17.948-88.605 26.016-38.958 68.972-76.941 120.954-106.954 51.982-30.012 106.355-48.221 153.101-51.272 4.463-.291 8.798-.435 13.006-.435 35.687 0 61.837 10.374 72.703 29.194 12.146 21.039 5.604 53.334-17.949 88.605z" fill="#8896e0"/><g><path d="m62.519 380.251c-18.425-31.912-11.679-74.784 18.995-120.718 28.559-42.765 75.097-84.106 131.044-116.407 55.946-32.301 115.019-51.935 166.333-55.284 1.386-.09 2.755-.16 4.123-.226-8.213-.428-16.842-.364-25.873.226-51.315 3.35-110.387 22.983-166.333 55.284-55.947 32.301-102.486 73.642-131.044 116.407-30.674 45.934-37.42 88.806-18.995 120.718 16.685 28.901 51.472 44.416 98.831 44.416 3.651 0 7.381-.093 11.18-.279-41.964-2.167-72.845-17.432-88.261-44.137z" fill="#6b7ed9"/></g></g><g><path d="m275.856 195.979c-3.932-1.303-8.176.833-9.476 4.766s.834 8.175 4.767 9.475c19.783 6.542 33.075 24.939 33.075 45.781 0 26.589-21.632 48.222-48.221 48.222-26.59 0-48.222-21.632-48.222-48.222 0-20.841 13.292-39.239 33.076-45.781 3.933-1.3 6.066-5.542 4.767-9.475s-5.542-6.069-9.476-4.766c-25.939 8.577-43.367 32.698-43.367 60.022 0 34.86 28.361 63.222 63.222 63.222s63.221-28.361 63.221-63.222c0-27.324-17.428-51.445-43.366-60.022z"/><path d="m34.298 384.001c23.198 40.181 73.769 50.586 120.272 47.685 25.751 51.795 61.75 80.316 101.431 80.316s75.679-28.521 101.43-80.315c46.513 2.894 97.074-7.503 120.272-47.685 19.842-34.366 13.141-79.802-18.84-128 15.003-22.608 24.507-44.647 28.237-65.514.729-4.078-1.985-7.974-6.063-8.703-4.071-.732-7.973 1.985-8.702 6.063-5.76 32.23-26.446 63.824-47.938 88.535-.014.016-.023.034-.037.05-108.967 125.282-326.779 187.183-377.071 100.068-20.938-36.265-2.86-81.651 21.073-116.229.001-.001.002-.002.002-.003 17.923-25.892 42.549-50.803 67.41-70.546 111.676-89.691 216.745-93.588 217.745-94.088 41.956-3.433 90.261 3.604 111.194 39.865 3.591 6.218 6.16 13.007 7.637 20.179.834 4.057 4.794 6.669 8.858 5.834 4.057-.835 6.669-4.801 5.833-8.858-1.801-8.748-4.942-17.043-9.338-24.655-19.841-34.367-62.543-51.283-120.271-47.683-25.751-51.796-61.749-80.317-101.431-80.317s-75.681 28.521-101.432 80.317c-57.723-3.599-100.431 13.318-120.271 47.683-19.842 34.366-13.141 79.803 18.84 128-31.981 48.2-38.681 93.636-18.84 128.001zm353.57-51.851c15.006-12.215 28.74-25.036 40.938-38.228 15.152 27.352 18.677 51.566 9.556 67.365-9.125 15.803-31.875 24.858-63.154 25.408 5.32-17.144 9.589-35.485 12.66-54.545zm63.484 36.637c12.559-21.752 8.253-52.411-12.062-86.744 3.799-4.531 7.401-9.081 10.243-12.857 25.968 41.312 31.387 79.245 15.18 107.315-12.708 22.012-42.677 42.686-100.537 40.509 1.609-3.785 4.368-10.743 6.023-15.298 39.873.408 68.595-11.175 81.153-32.925zm-118.734 2.036c-1.176 3.896-2.411 7.714-3.706 11.448-3.886-.746-7.814-1.576-11.781-2.507 5.754-3.187 9.767-5.501 15.487-8.941zm-35.192 19.295c8.814 2.533 17.552 4.672 26.099 6.39-1.987 4.827-4.124 9.591-6.488 14.396-13.172-2.803-26.657-6.523-40.303-11.112 6.907-3.028 13.81-6.256 20.692-9.674zm-41.403 18.155c18.108 6.898 36.067 12.375 53.56 16.333-16.102 26.858-35.181 41.968-53.582 41.968-18.243 0-37.451-15.16-53.563-41.958 17.527-3.969 35.501-9.453 53.585-16.343zm-69.113 19.483c19.577 34.759 43.977 53.817 69.092 53.817 50.185 0 82.641-71.171 95.437-122.64 6.398-4.249 12.641-8.611 18.714-13.076-16.215 80.095-57.068 151.144-114.151 151.144-32.413 0-62.555-23.66-85.348-66.805 5.192-.633 11.271-1.555 16.256-2.44zm-62.776-247.905c-15.006 12.215-28.741 25.036-40.939 38.229-15.152-27.351-18.677-51.566-9.556-67.365 9.043-15.664 31.971-24.856 63.157-25.417-5.321 17.147-9.59 35.491-12.662 54.553zm55.25-38.672c1.176-3.896 2.411-7.714 3.706-11.448 3.886.746 7.814 1.576 11.781 2.507-5.835 3.232-9.824 5.536-15.487 8.941zm35.192-19.295c-8.816-2.533-17.552-4.672-26.099-6.39 2.026-4.921 4.21-9.776 6.488-14.396 13.171 2.802 26.658 6.522 40.303 11.112-6.907 3.028-13.81 6.256-20.692 9.674zm41.404-18.155c-18.11-6.899-36.068-12.376-53.561-16.333 16.102-26.857 35.182-41.967 53.583-41.967 18.243 0 37.451 15.16 53.562 41.958-17.527 3.967-35.5 9.452-53.584 16.342zm.021-88.729c32.411 0 62.554 23.662 85.347 66.804-5.309.648-11.632 1.617-16.256 2.442-19.575-34.759-43.975-53.817-69.091-53.817-31.833 0-57.118 30.794-71.993 59.152-10.312 19.601-18.125 42.086-23.445 63.487-6.397 4.248-12.64 8.61-18.713 13.075 16.382-80.936 57.515-151.143 114.151-151.143zm-208.712 120.5c19.31-33.448 62.084-41.952 100.537-40.511-2.066 4.856-5.167 12.941-6.021 15.293-30.202-.354-66.011 6.704-81.154 32.932-12.559 21.752-8.253 52.411 12.062 86.744-3.266 3.885-7.159 8.759-10.243 12.857-25.969-41.311-31.388-79.244-15.181-107.315z"/><path d="m372.154 110.271c-162.013 0-359.344 175.655-311.504 258.517 33.732 58.425 179.857 38.022 298.207-52.477 49.67-37.989 123.397-119.572 92.495-173.095-12.267-21.246-40.393-32.945-79.198-32.945zm-43.263 19.442c1.303 3.75 2.536 7.575 3.712 11.46-5.764-3.468-9.621-5.695-15.487-8.94 3.956-.928 7.884-1.774 11.775-2.52zm-32.911 8.245c14.166 7.254 28.122 15.259 42.242 24.387 1.609 6.968 3.038 14.126 4.275 21.418-20.523-14.245-43.325-27.545-67.2-38.797 6.933-2.574 13.845-4.917 20.683-7.008zm-177.724 109.086c-.105 5.795-.135 10.761-.008 17.893-2.79-2.972-5.474-5.959-8.063-8.953 2.592-2.997 5.29-5.977 8.071-8.94zm-17.699 20.733c5.761 6.543 11.979 13.038 18.578 19.403.443 7.058 1.173 15.551 1.973 22.76-10.798-9.523-20.762-19.343-29.775-29.348 2.626-3.931 5.851-8.44 9.224-12.815zm-26.917 93.51c-9.199-15.934-5.656-40.009 9.548-67.377 12.178 13.176 25.906 25.999 40.944 38.238 3.069 19.055 7.3 37.354 12.643 54.555-31.175-.566-54.094-9.758-63.135-25.416zm78.729 25.024c-15.89-48.933-21.133-104.202-18.585-154.709 5.229-4.876 10.714-9.69 16.411-14.407-4.554 54.59.273 115.389 17.882 167.537-5.445.729-11.075 1.276-15.708 1.579zm30.742-4.022c-1.303-3.75-2.536-7.575-3.712-11.46 5.722 3.443 9.585 5.675 15.487 8.941-3.956.927-7.884 1.772-11.775 2.519zm32.911-8.245c-14.043-7.191-27.999-15.181-42.242-24.388-1.608-6.965-3.037-14.123-4.275-21.417 20.422 14.175 43.232 27.501 67.201 38.797-6.934 2.574-13.847 4.917-20.684 7.008zm129.415-66.388c-27.269 20.293-58.185 38.146-89.417 51.626-31.353-13.524-62.087-31.269-89.481-51.662-3.904-33.516-3.963-69.142.027-103.276 13.472-10.025 27.946-19.545 43.231-28.37s30.768-16.6 46.186-23.254c31.355 13.527 62.086 31.269 89.48 51.662 3.904 33.518 3.962 69.138-.026 103.274zm32.781-27.257c-5.229 4.876-10.713 9.69-16.411 14.408 4.554-54.592-.273-115.389-17.882-167.537 4.976-.666 10.548-1.245 15.708-1.58 15.764 48.544 21.156 103.747 18.585 154.709zm15.528-15.442c.109-5.98.132-10.906.008-17.893 2.79 2.971 5.473 5.959 8.063 8.952-2.592 2.997-5.29 5.978-8.071 8.941zm17.699-20.733c-5.762-6.542-11.98-13.038-18.578-19.402-.465-7.421-1.218-15.956-1.973-22.76 10.799 9.522 20.763 19.342 29.774 29.347-2.552 3.827-5.84 8.426-9.223 12.815zm17.369-26.133c-12.178-13.176-25.906-25.999-40.943-38.238-3.069-19.055-7.3-37.354-12.643-54.555 31.174.565 54.092 9.757 63.135 25.417 9.198 15.934 5.655 40.008-9.549 67.376z"/></g></g></svg>